<?xml version="1.0" encoding="utf-8"?>
<!-- Generator: Adobe Illustrator 22.1.0, SVG Export Plug-In . SVG Version: 6.00 Build 0)  -->
<svg version="1.1" id="Camada_1" xmlns="http://www.w3.org/2000/svg" xmlns:xlink="http://www.w3.org/1999/xlink" x="0px" y="0px"
	 viewBox="0 0 171.4 160.5" style="enable-background:new 0 0 171.4 160.5;" xml:space="preserve">
<style type="text/css">
	.st0{fill:#FFFFFF;}
	.st1{fill:#00BF21;}
	.st2{fill:#FFFF00;}
</style>
<path class="st0" d="M25.2,141.2V20.9h38h0c21,0,38,16.8,38,37.6v0v27.3c0,5.7,4.7,10.3,10.4,10.3h12.4h0
	c12.6,0,22.8,10.1,22.8,22.6v0v22.6L25.2,141.2z"/>
<path class="st1" d="M25.2,141.2h121.5v-37.6v0c0-20.8-17-37.6-38-37.6h0H81.1C75.4,66,25.2,141.2,25.2,141.2z"/>
<path class="st2" d="M24.9,141.4V20.7h22.7c12.6,0,22.9,10.3,22.9,22.8v12.2c0,5.6,4.7,10.3,10.4,10.3h20.2v19.8
	c0,5.6,4.7,10.3,10.4,10.3H124c12.6,0,22.7,10,22.7,22.5v22.8H24.9z"/>
<g>
</g>
<g>
</g>
<g>
</g>
<g>
</g>
<g>
</g>
<g>
</g>
</svg>
